# xmcd
#
# Track frame offsets:
#	150
#	13265
#	26067
#	38764
#	51940
#	65805
#	76617
#	91202
#	103022
#	116647
#	131640
#	143977
#	159622
#	173220
#
# Disc length: 2495 seconds
#
# Revision: 1
# Processed by: cddbd v1.5.2PL0 Copyright (c) Steve Scherf et al.
# Submitted via: audiograbber 1.83.01
#
DISCID=be09bd0e
DTITLE=Henk Weingard - Von Trucker und Sehnsucht
DYEAR=1900
DGENRE=Country
TTITLE0=Container-Song
TTITLE1=Wanderer von der Autobahn
TTITLE2=In meinem Truck bin ich König
TTITLE3=Oh Susanne
TTITLE4=Ich komm´ nicht um 6 Uhr heim
TTITLE5=Das kleine Foto
TTITLE6=Noch ´n Stau
TTITLE7=Eine Strasse auf der Erde
TTITLE8=Ein Herz kann Lieben oder Hassen
TTITLE9=Hey Cowboy
TTITLE10=Trucker Ole
TTITLE11=He Susi
TTITLE12=Zwei Nummernschilder
TTITLE13=Truckerfest
EXTD=
EXTT0=
EXTT1=
EXTT2=
EXTT3=
EXTT4=
EXTT5=
EXTT6=
EXTT7=
EXTT8=
EXTT9=
EXTT10=
EXTT11=
EXTT12=
EXTT13=
PLAYORDER=
